<?xml version="1.0" encoding="utf-8"?>
<!-- Generator: Adobe Illustrator 27.1.1, SVG Export Plug-In . SVG Version: 6.00 Build 0)  -->
<svg version="1.1" id="Layer_1" xmlns="http://www.w3.org/2000/svg" xmlns:xlink="http://www.w3.org/1999/xlink" x="0px" y="0px"
	 viewBox="0 0 17.2 17.1" style="enable-background:new 0 0 17.2 17.1;" xml:space="preserve">
<style type="text/css">
	.st0{fill-rule:evenodd;clip-rule:evenodd;fill:#FFFFFF;}
	.st1{fill:#FFFFFF;}
</style>
<g>
	<path class="st0" d="M15.6,0H4.7C3.8,0,3.1,0.7,3.1,1.6v0.4c0,0.2,0.2,0.4,0.4,0.4c0.2,0,0.4-0.2,0.4-0.4V1.6
		c0-0.4,0.3-0.8,0.8-0.8h10.9c0.4,0,0.8,0.3,0.8,0.8v10.9c0,0.4-0.3,0.8-0.8,0.8h-0.4c-0.2,0-0.4,0.2-0.4,0.4S15,14,15.2,14h0.4
		c0.9,0,1.6-0.7,1.6-1.6V1.6C17.2,0.7,16.5,0,15.6,0 M3.5,14l2.4-3.6l1.2,1.8c0.1,0.1,0.2,0.2,0.4,0.2c0.1,0,0.2,0,0.3-0.1l1.2-1.2
		l1.7,2.9H3.5L3.5,14z M11.7,14.3L11.7,14.3C11.7,14.3,11.7,14.3,11.7,14.3l-2.3-3.9h0c-0.1-0.1-0.2-0.2-0.4-0.2
		c-0.1,0-0.2,0-0.3,0.1l-1.2,1.2L6.2,9.6C6.2,9.5,6,9.4,5.8,9.4c-0.1,0-0.2,0.1-0.3,0.2l0,0l-3.1,4.7l0,0c0,0.1-0.1,0.1-0.1,0.2
		c0,0.2,0.2,0.4,0.4,0.4h8.6c0.2,0,0.4-0.2,0.4-0.4C11.7,14.4,11.7,14.3,11.7,14.3L11.7,14.3L11.7,14.3z M3.9,6.2
		c0.4,0,0.8,0.3,0.8,0.8c0,0.4-0.3,0.8-0.8,0.8C3.5,7.8,3.1,7.4,3.1,7C3.1,6.6,3.5,6.2,3.9,6.2 M3.9,8.6c0.9,0,1.6-0.7,1.6-1.6
		c0-0.9-0.7-1.6-1.6-1.6C3,5.5,2.3,6.2,2.3,7C2.3,7.9,3,8.6,3.9,8.6 M13.3,15.6c0,0.4-0.3,0.8-0.8,0.8H1.6c-0.4,0-0.8-0.3-0.8-0.8
		V4.7c0-0.4,0.3-0.8,0.8-0.8h10.9c0.4,0,0.8,0.3,0.8,0.8V15.6L13.3,15.6z M12.5,3.1H1.6C0.7,3.1,0,3.8,0,4.7v10.9
		c0,0.9,0.7,1.6,1.6,1.6h10.9c0.9,0,1.6-0.7,1.6-1.6V4.7C14,3.8,13.3,3.1,12.5,3.1"/>
	<path class="st1" d="M15.6,0H4.7C3.8,0,3.1,0.7,3.1,1.6v0.4c0,0.2,0.2,0.4,0.4,0.4c0.2,0,0.4-0.2,0.4-0.4V1.6
		c0-0.4,0.3-0.8,0.8-0.8h10.9c0.4,0,0.8,0.3,0.8,0.8v10.9c0,0.4-0.3,0.8-0.8,0.8h-0.4c-0.2,0-0.4,0.2-0.4,0.4S15,14,15.2,14h0.4
		c0.9,0,1.6-0.7,1.6-1.6V1.6C17.2,0.7,16.5,0,15.6,0 M3.5,14l2.4-3.6l1.2,1.8c0.1,0.1,0.2,0.2,0.4,0.2c0.1,0,0.2,0,0.3-0.1l1.2-1.2
		l1.7,2.9H3.5L3.5,14z M11.7,14.3L11.7,14.3C11.7,14.3,11.7,14.3,11.7,14.3l-2.3-3.9h0c-0.1-0.1-0.2-0.2-0.4-0.2
		c-0.1,0-0.2,0-0.3,0.1l-1.2,1.2L6.2,9.6C6.2,9.5,6,9.4,5.8,9.4c-0.1,0-0.2,0.1-0.3,0.2l0,0l-3.1,4.7l0,0c0,0.1-0.1,0.1-0.1,0.2
		c0,0.2,0.2,0.4,0.4,0.4h8.6c0.2,0,0.4-0.2,0.4-0.4C11.7,14.4,11.7,14.3,11.7,14.3L11.7,14.3L11.7,14.3z M3.9,6.2
		c0.4,0,0.8,0.3,0.8,0.8c0,0.4-0.3,0.8-0.8,0.8C3.5,7.8,3.1,7.4,3.1,7C3.1,6.6,3.5,6.2,3.9,6.2 M3.9,8.6c0.9,0,1.6-0.7,1.6-1.6
		c0-0.9-0.7-1.6-1.6-1.6C3,5.5,2.3,6.2,2.3,7C2.3,7.9,3,8.6,3.9,8.6 M13.3,15.6c0,0.4-0.3,0.8-0.8,0.8H1.6c-0.4,0-0.8-0.3-0.8-0.8
		V4.7c0-0.4,0.3-0.8,0.8-0.8h10.9c0.4,0,0.8,0.3,0.8,0.8V15.6L13.3,15.6z M12.5,3.1H1.6C0.7,3.1,0,3.8,0,4.7v10.9
		c0,0.9,0.7,1.6,1.6,1.6h10.9c0.9,0,1.6-0.7,1.6-1.6V4.7C14,3.8,13.3,3.1,12.5,3.1"/>
</g>
</svg>
