<?xml version="1.0" encoding="utf-8"?>
<!-- Generator: Adobe Illustrator 27.2.0, SVG Export Plug-In . SVG Version: 6.00 Build 0)  -->
<svg version="1.1" id="Layer_1" xmlns="http://www.w3.org/2000/svg" xmlns:xlink="http://www.w3.org/1999/xlink" x="0px" y="0px"
	 viewBox="0 0 48 48" style="enable-background:new 0 0 48 48;" xml:space="preserve">
<style type="text/css">
	.st0{fill:#EA580C;}
</style>
<g id="Layer_2_00000150080242651987168960000015038742191469646989_">
	<g id="layer_1-2">
		<path class="st0" d="M39,48c-3.3,0-6-2.7-6-6s2.7-6,6-6s6,2.7,6,6S42.3,48,39,48z M39,38c-2.2,0-4,1.8-4,4s1.8,4,4,4s4-1.8,4-4
			S41.2,38,39,38z"/>
		<path class="st0" d="M20,48c-3.3,0-6-2.7-6-6s2.7-6,6-6s6,2.7,6,6S23.3,48,20,48z M20,38c-2.2,0-4,1.8-4,4s1.8,4,4,4s4-1.8,4-4
			S22.2,38,20,38z"/>
		<rect x="25" y="41" class="st0" width="9" height="2"/>
		<rect x="38" y="41" class="st0" width="2" height="2"/>
		<rect x="19" y="41" class="st0" width="2" height="2"/>
		<path class="st0" d="M11,33.1L6.4,3.7c-0.2-1-1-1.7-2-1.7H0V0h4.4c2,0,3.7,1.4,4,3.4L13,32.8L11,33.1z"/>
		<path class="st0" d="M15,43h-2.5c-3,0-5.5-2.5-5.5-5.5c0-3,2.5-5.5,5.5-5.5h28.7l4.6-21H8V9h39c0.6,0,1,0.4,1,1c0,0.1,0,0.2,0,0.2
			l-5,23c-0.1,0.5-0.5,0.8-1,0.8H12.5C10.6,34,9,35.6,9,37.5s1.6,3.5,3.5,3.5H15V43z"/>
		<rect x="22.7" y="20.5" transform="matrix(0.2129 -0.9771 0.9771 0.2129 6.1526 50.6315)" class="st0" width="23.5" height="2"/>
		<rect x="12.7" y="20.5" transform="matrix(0.2129 -0.9771 0.9771 0.2129 -1.7185 40.8627)" class="st0" width="23.5" height="2"/>
		<rect x="2.7" y="20.5" transform="matrix(0.2129 -0.9771 0.9771 0.2129 -9.5896 31.0939)" class="st0" width="23.5" height="2"/>
	</g>
</g>
</svg>
