<?xml version="1.0" encoding="utf-8"?>
<!-- Generator: Adobe Illustrator 27.1.1, SVG Export Plug-In . SVG Version: 6.00 Build 0)  -->
<svg version="1.1" id="Layer_1" xmlns="http://www.w3.org/2000/svg" xmlns:xlink="http://www.w3.org/1999/xlink" x="0px" y="0px"
	 viewBox="0 0 17.2 17.1" style="enable-background:new 0 0 17.2 17.1;" xml:space="preserve">
<style type="text/css">
	.st0{fill-rule:evenodd;clip-rule:evenodd;fill:#FFFFFF;}
	.st1{fill:#FFFFFF;}
</style>
<g>
	<path class="st0" d="M7.7,11.7c-0.1,0.1-0.3,0.2-0.5,0.2v-1.4c0.1,0,0.1,0.1,0.2,0.1c0.1,0,0.2,0.1,0.2,0.1
		c0.1,0.1,0.1,0.1,0.2,0.2c0,0.1,0.1,0.2,0.1,0.3C7.9,11.4,7.8,11.6,7.7,11.7 M6.9,9.6c-0.1,0-0.1,0-0.2-0.1c-0.1,0-0.2-0.1-0.2-0.1
		c-0.1,0-0.1-0.1-0.2-0.2c0-0.1-0.1-0.2-0.1-0.3c0-0.2,0.1-0.4,0.2-0.5c0.1-0.1,0.2-0.1,0.4-0.1V9.6L6.9,9.6z M8.1,10.1
		C8,10,7.9,9.9,7.7,9.8C7.5,9.8,7.4,9.7,7.2,9.7V8.4c0.2,0,0.3,0.1,0.4,0.2S7.8,8.8,7.8,9h0.7c0-0.2,0-0.4-0.1-0.5
		C8.3,8.3,8.2,8.2,8.1,8.1C8,8,7.8,7.9,7.7,7.9c-0.2,0-0.3-0.1-0.5-0.1V7.4H6.9v0.4c-0.2,0-0.3,0-0.5,0.1C6.2,7.9,6.1,8,6,8.1
		C5.8,8.2,5.7,8.4,5.7,8.5C5.6,8.7,5.5,8.8,5.5,9c0,0.2,0,0.4,0.1,0.6C5.7,9.7,5.9,9.9,6,10c0.1,0.1,0.3,0.2,0.4,0.2
		c0.2,0.1,0.3,0.1,0.4,0.2v1.5c-0.3,0-0.4-0.1-0.5-0.2c-0.1-0.2-0.2-0.4-0.2-0.6H5.5c0,0.2,0,0.4,0.1,0.6c0.1,0.2,0.2,0.3,0.3,0.4
		c0.1,0.1,0.3,0.2,0.5,0.3c0.2,0.1,0.3,0.1,0.5,0.1v0.4h0.4v-0.4c0.2,0,0.3,0,0.5-0.1c0.2-0.1,0.3-0.1,0.4-0.3
		c0.1-0.1,0.2-0.3,0.3-0.4c0.1-0.2,0.1-0.4,0.1-0.6c0-0.2,0-0.4-0.1-0.6C8.4,10.3,8.3,10.2,8.1,10.1 M10.1,0C7.9,0,5.9,1.1,4.6,2.7
		C5,2.6,5.5,2.5,5.9,2.4c1.1-1,2.6-1.6,4.2-1.6c3.4,0,6.2,2.8,6.2,6.2c0,1.6-0.6,3.1-1.6,4.2c-0.1,0.5-0.2,0.9-0.3,1.3
		c1.7-1.3,2.7-3.3,2.7-5.5C17.2,3.1,14,0,10.1,0 M7,16.4c-3.4,0-6.2-2.8-6.2-6.2c0-3.4,2.8-6.2,6.2-6.2c3.4,0,6.2,2.8,6.2,6.2
		C13.3,13.6,10.5,16.4,7,16.4 M7,3.1c-3.9,0-7,3.1-7,7s3.1,7,7,7s7-3.1,7-7S10.9,3.1,7,3.1"/>
	<path class="st1" d="M7.7,11.7c-0.1,0.1-0.3,0.2-0.5,0.2v-1.4c0.1,0,0.1,0.1,0.2,0.1c0.1,0,0.2,0.1,0.2,0.1
		c0.1,0.1,0.1,0.1,0.2,0.2c0,0.1,0.1,0.2,0.1,0.3C7.9,11.4,7.8,11.6,7.7,11.7 M6.9,9.6c-0.1,0-0.1,0-0.2-0.1c-0.1,0-0.2-0.1-0.2-0.1
		c-0.1,0-0.1-0.1-0.2-0.2c0-0.1-0.1-0.2-0.1-0.3c0-0.2,0.1-0.4,0.2-0.5c0.1-0.1,0.2-0.1,0.4-0.1V9.6L6.9,9.6z M8.1,10.1
		C8,10,7.9,9.9,7.7,9.8C7.5,9.8,7.4,9.7,7.2,9.7V8.4c0.2,0,0.3,0.1,0.4,0.2S7.8,8.8,7.8,9h0.7c0-0.2,0-0.4-0.1-0.5
		C8.3,8.3,8.2,8.2,8.1,8.1C8,8,7.8,7.9,7.7,7.9c-0.2,0-0.3-0.1-0.5-0.1V7.4H6.9v0.4c-0.2,0-0.3,0-0.5,0.1C6.2,7.9,6.1,8,6,8.1
		C5.8,8.2,5.7,8.4,5.7,8.5C5.6,8.7,5.5,8.8,5.5,9c0,0.2,0,0.4,0.1,0.6C5.7,9.7,5.9,9.9,6,10c0.1,0.1,0.3,0.2,0.4,0.2
		c0.2,0.1,0.3,0.1,0.4,0.2v1.5c-0.3,0-0.4-0.1-0.5-0.2c-0.1-0.2-0.2-0.4-0.2-0.6H5.5c0,0.2,0,0.4,0.1,0.6c0.1,0.2,0.2,0.3,0.3,0.4
		c0.1,0.1,0.3,0.2,0.5,0.3c0.2,0.1,0.3,0.1,0.5,0.1v0.4h0.4v-0.4c0.2,0,0.3,0,0.5-0.1c0.2-0.1,0.3-0.1,0.4-0.3
		c0.1-0.1,0.2-0.3,0.3-0.4c0.1-0.2,0.1-0.4,0.1-0.6c0-0.2,0-0.4-0.1-0.6C8.4,10.3,8.3,10.2,8.1,10.1 M10.1,0C7.9,0,5.9,1.1,4.6,2.7
		C5,2.6,5.5,2.5,5.9,2.4c1.1-1,2.6-1.6,4.2-1.6c3.4,0,6.2,2.8,6.2,6.2c0,1.6-0.6,3.1-1.6,4.2c-0.1,0.5-0.2,0.9-0.3,1.3
		c1.7-1.3,2.7-3.3,2.7-5.5C17.2,3.1,14,0,10.1,0 M7,16.4c-3.4,0-6.2-2.8-6.2-6.2c0-3.4,2.8-6.2,6.2-6.2c3.4,0,6.2,2.8,6.2,6.2
		C13.3,13.6,10.5,16.4,7,16.4 M7,3.1c-3.9,0-7,3.1-7,7s3.1,7,7,7s7-3.1,7-7S10.9,3.1,7,3.1"/>
</g>
</svg>
