<?xml version="1.0" encoding="utf-8"?>
<!-- Generator: Adobe Illustrator 27.1.1, SVG Export Plug-In . SVG Version: 6.00 Build 0)  -->
<svg version="1.1" id="Layer_1" xmlns="http://www.w3.org/2000/svg" xmlns:xlink="http://www.w3.org/1999/xlink" x="0px" y="0px"
	 viewBox="0 0 17.2 13.8" style="enable-background:new 0 0 17.2 13.8;" xml:space="preserve">
<style type="text/css">
	.st0{fill-rule:evenodd;clip-rule:evenodd;fill:#FFFFFF;}
	.st1{fill:#FFFFFF;}
</style>
<g>
	<path class="st0" d="M16.4,13.1h-1.6V0.8h1.6V13.1L16.4,13.1z M16.8,0h-2.3C14.2,0,14,0.2,14,0.4v13.1c0,0.2,0.2,0.4,0.4,0.4h2.3
		c0.2,0,0.4-0.2,0.4-0.4V0.4C17.2,0.2,17,0,16.8,0 M7,13.1H5.5V2.3H7V13.1L7,13.1z M7.4,1.5H5.1c-0.2,0-0.4,0.2-0.4,0.4v11.5
		c0,0.2,0.2,0.4,0.4,0.4h2.3c0.2,0,0.4-0.2,0.4-0.4V1.9C7.8,1.7,7.6,1.5,7.4,1.5 M11.7,13.1h-1.6V6.9h1.6V13.1L11.7,13.1z M12.1,6.2
		H9.7c-0.2,0-0.4,0.2-0.4,0.4v6.9c0,0.2,0.2,0.4,0.4,0.4h2.3c0.2,0,0.4-0.2,0.4-0.4V6.5C12.5,6.3,12.3,6.2,12.1,6.2 M2.3,13.1H0.8
		V9.2h1.6V13.1L2.3,13.1z M2.7,8.5H0.4C0.2,8.5,0,8.6,0,8.8v4.6c0,0.2,0.2,0.4,0.4,0.4h2.3c0.2,0,0.4-0.2,0.4-0.4V8.8
		C3.1,8.6,2.9,8.5,2.7,8.5"/>
	<path class="st1" d="M16.4,13.1h-1.6V0.8h1.6V13.1L16.4,13.1z M16.8,0h-2.3C14.2,0,14,0.2,14,0.4v13.1c0,0.2,0.2,0.4,0.4,0.4h2.3
		c0.2,0,0.4-0.2,0.4-0.4V0.4C17.2,0.2,17,0,16.8,0 M7,13.1H5.5V2.3H7V13.1L7,13.1z M7.4,1.5H5.1c-0.2,0-0.4,0.2-0.4,0.4v11.5
		c0,0.2,0.2,0.4,0.4,0.4h2.3c0.2,0,0.4-0.2,0.4-0.4V1.9C7.8,1.7,7.6,1.5,7.4,1.5 M11.7,13.1h-1.6V6.9h1.6V13.1L11.7,13.1z M12.1,6.2
		H9.7c-0.2,0-0.4,0.2-0.4,0.4v6.9c0,0.2,0.2,0.4,0.4,0.4h2.3c0.2,0,0.4-0.2,0.4-0.4V6.5C12.5,6.3,12.3,6.2,12.1,6.2 M2.3,13.1H0.8
		V9.2h1.6V13.1L2.3,13.1z M2.7,8.5H0.4C0.2,8.5,0,8.6,0,8.8v4.6c0,0.2,0.2,0.4,0.4,0.4h2.3c0.2,0,0.4-0.2,0.4-0.4V8.8
		C3.1,8.6,2.9,8.5,2.7,8.5"/>
</g>
</svg>
