<?xml version="1.0" encoding="utf-8"?>
<!-- Generator: Adobe Illustrator 27.2.0, SVG Export Plug-In . SVG Version: 6.00 Build 0)  -->
<svg version="1.1" id="Layer_1" xmlns="http://www.w3.org/2000/svg" xmlns:xlink="http://www.w3.org/1999/xlink" x="0px" y="0px"
	 viewBox="0 0 46 48" style="enable-background:new 0 0 46 48;" xml:space="preserve">
<style type="text/css">
	.st0{fill:#EA580C;}
</style>
<g id="Layer_2_00000067914443623588425570000012132127323372028090_">
	<g id="layer_1-2">
		<path class="st0" d="M23,31c-6,0-12-1.7-12-5c0-2.3,3-4,7.9-4.7l0.3,2C15,23.8,13,25.2,13,26c0,1.2,4,3,10,3s10-1.8,10-3
			c0-0.8-2-2.1-6.2-2.7l0.3-2C32,22,35,23.7,35,26C35,29.3,29,31,23,31z"/>
		<path class="st0" d="M23,37c-6,0-12-1.7-12-5v-6c0-0.6,0.4-1,1-1s1,0.4,1,1c0,1.2,4,3,10,3s10-1.8,10-3c0-0.6,0.4-1,1-1s1,0.4,1,1
			v6C35,35.3,29,37,23,37z M13,28.9V32c0,1.2,4,3,10,3s10-1.8,10-3v-3.1C28.5,31.7,17.5,31.7,13,28.9z"/>
		<path class="st0" d="M34,42c-6,0-12-1.7-12-5c0-0.6,0.2-1.1,0.5-1.6l1.6,1.2C24.1,36.7,24,36.8,24,37c0,1.2,4,3,10,3s10-1.8,10-3
			s-4-3-10-3h-0.3v-2H34c6,0,12,1.7,12,5S40,42,34,42z"/>
		<path class="st0" d="M34,48c-6,0-12-1.7-12-5v-6c0-0.6,0.4-1,1-1s1,0.4,1,1c0,1.2,4,3,10,3s10-1.8,10-3c0-0.6,0.4-1,1-1s1,0.4,1,1
			v6C46,46.3,40,48,34,48z M24,39.9V43c0,1.2,4,3,10,3s10-1.8,10-3v-3.1C39.5,42.7,28.5,42.7,24,39.9z"/>
		<path class="st0" d="M12,42c-6,0-12-1.7-12-5s6-5,12-5h0.4v2H12c-6,0-10,1.8-10,3s4,3,10,3s10-1.8,10-3c0-0.2-0.1-0.3-0.2-0.4
			l1.6-1.2c0.3,0.5,0.5,1,0.5,1.6C24,40.3,18,42,12,42z"/>
		<path class="st0" d="M12,48c-6,0-12-1.7-12-5v-6c0-0.6,0.4-1,1-1s1,0.4,1,1c0,1.2,4,3,10,3s10-1.8,10-3c0-0.6,0.4-1,1-1s1,0.4,1,1
			v6C24,46.3,18,48,12,48z M2,39.9V43c0,1.2,4,3,10,3s10-1.8,10-3v-3.1C17.5,42.7,6.5,42.7,2,39.9z"/>
		<path class="st0" d="M23,24c-6.6,0-12-5.4-12-12S16.4,0,23,0s12,5.4,12,12S29.6,24,23,24z M23,2c-5.5,0-10,4.5-10,10s4.5,10,10,10
			s10-4.5,10-10S28.5,2,23,2z"/>
		<rect x="22" y="18" class="st0" width="2" height="3"/>
		<path class="st0" d="M23,19c-2.2,0-4-1.8-4-4h2c0,1.1,0.9,2,2,2s2-0.9,2-2s-0.9-2-2-2c-2.2,0-4-1.8-4-4s1.8-4,4-4s4,1.8,4,4h-2
			c0-1.1-0.9-2-2-2s-2,0.9-2,2s0.9,2,2,2c2.2,0,4,1.8,4,4S25.2,19,23,19z"/>
		<rect x="22" y="3" class="st0" width="2" height="3"/>
		<rect x="29" y="11" class="st0" width="2" height="2"/>
		<rect x="15" y="11" class="st0" width="2" height="2"/>
		<rect x="31" y="41" class="st0" width="2" height="6"/>
		<rect x="26" y="30" class="st0" width="2" height="6"/>
		<rect x="16" y="29" class="st0" width="2" height="6"/>
		<rect x="14" y="41" class="st0" width="2" height="6"/>
		<rect x="7" y="41" class="st0" width="2" height="6"/>
		<rect x="39" y="40" class="st0" width="2" height="6"/>
	</g>
</g>
</svg>
