<?xml version="1.0" encoding="utf-8"?>
<!-- Generator: Adobe Illustrator 27.1.1, SVG Export Plug-In . SVG Version: 6.00 Build 0)  -->
<svg version="1.1" id="Layer_1" xmlns="http://www.w3.org/2000/svg" xmlns:xlink="http://www.w3.org/1999/xlink" x="0px" y="0px"
	 viewBox="0 0 17.2 15.2" style="enable-background:new 0 0 17.2 15.2;" xml:space="preserve">
<style type="text/css">
	.st0{fill-rule:evenodd;clip-rule:evenodd;fill:#FFFFFF;}
	.st1{fill:#FFFFFF;}
</style>
<g>
	<path class="st0" d="M16.4,14.4H0.8V9.9h4.7c0.2,1.5,1.5,2.7,3.1,2.7s2.9-1.2,3.1-2.7h4.7V14.4L16.4,14.4z M17.1,9.3L17.1,9.3
		l-3.9-7.6l0,0c-0.1-0.1-0.2-0.2-0.3-0.2h-2.7c-0.2,0-0.4,0.2-0.4,0.4c0,0.2,0.2,0.4,0.4,0.4h2.5l3.5,6.8h-4.8
		c-0.2,0-0.4,0.2-0.4,0.4c0,1.3-1,2.3-2.3,2.3c-1.3,0-2.3-1-2.3-2.3c0-0.2-0.2-0.4-0.4-0.4H1l3.5-6.8H7c0.2,0,0.4-0.2,0.4-0.4
		c0-0.2-0.2-0.4-0.4-0.4H4.3C4.1,1.5,4,1.6,3.9,1.7l0,0L0,9.3l0,0c0,0.1,0,0.1,0,0.2v5.3c0,0.2,0.2,0.4,0.4,0.4h16.4
		c0.2,0,0.4-0.2,0.4-0.4V9.5C17.2,9.4,17.1,9.4,17.1,9.3 M6.2,6.1C6,6.1,5.8,6.2,5.8,6.4c0,0.1,0,0.2,0.1,0.3L8.3,9
		c0.1,0.1,0.2,0.1,0.3,0.1c0.1,0,0.2,0,0.3-0.1l2.3-2.3c0.1-0.1,0.1-0.2,0.1-0.3c0-0.2-0.2-0.4-0.4-0.4c-0.1,0-0.2,0-0.3,0.1L9,7.8
		V0.4C9,0.2,8.8,0,8.6,0C8.4,0,8.2,0.2,8.2,0.4v7.4L6.5,6.2C6.4,6.1,6.3,6.1,6.2,6.1"/>
	<path class="st1" d="M16.4,14.4H0.8V9.9h4.7c0.2,1.5,1.5,2.7,3.1,2.7s2.9-1.2,3.1-2.7h4.7V14.4L16.4,14.4z M17.1,9.3L17.1,9.3
		l-3.9-7.6l0,0c-0.1-0.1-0.2-0.2-0.3-0.2h-2.7c-0.2,0-0.4,0.2-0.4,0.4c0,0.2,0.2,0.4,0.4,0.4h2.5l3.5,6.8h-4.8
		c-0.2,0-0.4,0.2-0.4,0.4c0,1.3-1,2.3-2.3,2.3c-1.3,0-2.3-1-2.3-2.3c0-0.2-0.2-0.4-0.4-0.4H1l3.5-6.8H7c0.2,0,0.4-0.2,0.4-0.4
		c0-0.2-0.2-0.4-0.4-0.4H4.3C4.1,1.5,4,1.6,3.9,1.7l0,0L0,9.3l0,0c0,0.1,0,0.1,0,0.2v5.3c0,0.2,0.2,0.4,0.4,0.4h16.4
		c0.2,0,0.4-0.2,0.4-0.4V9.5C17.2,9.4,17.1,9.4,17.1,9.3 M6.2,6.1C6,6.1,5.8,6.2,5.8,6.4c0,0.1,0,0.2,0.1,0.3L8.3,9
		c0.1,0.1,0.2,0.1,0.3,0.1c0.1,0,0.2,0,0.3-0.1l2.3-2.3c0.1-0.1,0.1-0.2,0.1-0.3c0-0.2-0.2-0.4-0.4-0.4c-0.1,0-0.2,0-0.3,0.1L9,7.8
		V0.4C9,0.2,8.8,0,8.6,0C8.4,0,8.2,0.2,8.2,0.4v7.4L6.5,6.2C6.4,6.1,6.3,6.1,6.2,6.1"/>
</g>
</svg>
