<?xml version="1.0" encoding="utf-8"?>
<!-- Generator: Adobe Illustrator 27.2.0, SVG Export Plug-In . SVG Version: 6.00 Build 0)  -->
<svg version="1.1" id="Layer_1" xmlns="http://www.w3.org/2000/svg" xmlns:xlink="http://www.w3.org/1999/xlink" x="0px" y="0px"
	 viewBox="0 0 48 48" style="enable-background:new 0 0 48 48;" xml:space="preserve">
<style type="text/css">
	.st0{fill:#EA580C;}
</style>
<g id="Layer_2_00000168093351285541842340000004161492017593699209_">
	<g id="layer_1-2">
		<path class="st0" d="M11,22C4.9,22,0,17.1,0,11S4.9,0,11,0s11,4.9,11,11S17.1,22,11,22z M11,2c-5,0-9,4-9,9s4,9,9,9s9-4,9-9
			S16,2,11,2z"/>
		<path class="st0" d="M11,14c-2.2,0-4-2.3-4-5c-0.1-2.1,1.4-3.9,3.5-4c0.2,0,0.3,0,0.5,0c2.1-0.1,3.9,1.4,4,3.5c0,0.2,0,0.3,0,0.5
			C15,11.7,13.2,14,11,14z M11,7c-1-0.1-1.9,0.6-2,1.6C9,8.7,9,8.9,9,9c0,1.5,1,3,2,3s2-1.5,2-3c0.1-1-0.6-1.9-1.6-2
			C11.3,7,11.1,7,11,7z"/>
		<path class="st0" d="M18,19h-2v-3.3c0-0.5-0.4-0.9-0.8-1L11,14l-4.2,0.7c-0.5,0.1-0.8,0.5-0.8,1V19H4v-3.3c0-1.5,1.1-2.7,2.5-2.9
			l4.3-0.7h0.3l4.3,0.7c1.4,0.2,2.5,1.5,2.5,3V19z"/>
		<path class="st0" d="M37,31c-6.1,0-11-4.9-11-11S30.9,9,37,9s11,4.9,11,11S43.1,31,37,31z M37,11c-5,0-9,4-9,9s4,9,9,9s9-4,9-9
			S42,11,37,11z"/>
		<path class="st0" d="M37,23c-2.2,0-4-2.3-4-5c-0.1-2.1,1.4-3.9,3.5-4c0.2,0,0.3,0,0.5,0c2.1-0.1,3.9,1.4,4,3.5c0,0.2,0,0.3,0,0.5
			C41,20.7,39.2,23,37,23z M37,16c-1-0.1-1.9,0.6-2,1.6c0,0.1,0,0.3,0,0.4c0,1.5,1,3,2,3s2-1.5,2-3c0.1-1-0.6-1.9-1.6-2
			C37.3,16,37.1,16,37,16z"/>
		<path class="st0" d="M44,28h-2v-3.3c0-0.5-0.4-0.9-0.8-1L37,23l-4.2,0.7c-0.5,0.1-0.8,0.5-0.8,1V28h-2v-3.3c0-1.5,1-2.8,2.5-3
			l4.3-0.7c0.1,0,0.2,0,0.3,0l4.3,0.7c1.5,0.2,2.5,1.5,2.5,3L44,28z"/>
		<path class="st0" d="M16,48C9.9,48,5,43.1,5,37s4.9-11,11-11s11,4.9,11,11S22.1,48,16,48z M16,28c-5,0-9,4-9,9s4,9,9,9s9-4,9-9
			S21,28,16,28z"/>
		<path class="st0" d="M16,40c-2.2,0-4-2.3-4-5c-0.1-2.1,1.4-3.9,3.5-4c0.2,0,0.3,0,0.5,0c2.1-0.1,3.9,1.4,4,3.5c0,0.2,0,0.3,0,0.5
			C20,37.7,18.2,40,16,40z M16,33c-1-0.1-1.9,0.6-2,1.6c0,0.1,0,0.3,0,0.4c0,1.5,1,3,2,3s2-1.5,2-3c0.1-1-0.6-1.9-1.6-2
			C16.3,33,16.1,33,16,33z"/>
		<path class="st0" d="M23,45h-2v-3.3c0-0.5-0.4-0.9-0.8-1L16,40l-4.2,0.7c-0.5,0.1-0.8,0.5-0.8,1V45H9v-3.3c0-1.5,1.1-2.7,2.5-3
			l4.3-0.7h0.3l4.3,0.7c1.4,0.2,2.5,1.5,2.5,3V45z"/>
		<rect x="23" y="27.5" transform="matrix(0.7775 -0.6289 0.6289 0.7775 -12.0289 23.0068)" class="st0" width="7" height="2"/>
		<rect x="23" y="11.7" transform="matrix(0.3271 -0.945 0.945 0.3271 1.5018 33.1073)" class="st0" width="2" height="7.5"/>
	</g>
</g>
</svg>
