<?xml version="1.0" encoding="utf-8"?>
<!-- Generator: Adobe Illustrator 27.1.1, SVG Export Plug-In . SVG Version: 6.00 Build 0)  -->
<svg version="1.1" id="Layer_1" xmlns="http://www.w3.org/2000/svg" xmlns:xlink="http://www.w3.org/1999/xlink" x="0px" y="0px"
	 viewBox="0 0 70.9 70.9" style="enable-background:new 0 0 70.9 70.9;" xml:space="preserve">
<style type="text/css">
	.st0{fill:url(#SVGID_1_);}
	.st1{fill:url(#SVGID_00000066508970207783494480000012663513048581196463_);}
	.st2{fill:#FFFFFF;}
</style>
<radialGradient id="SVGID_1_" cx="35.436" cy="35.436" r="42.7225" fx="16.0416" fy="73.5027" gradientUnits="userSpaceOnUse">
	<stop  offset="9.163850e-02" style="stop-color:#FFDD55"/>
	<stop  offset="0.5465" style="stop-color:#FF543E"/>
	<stop  offset="0.9173" style="stop-color:#C837AB"/>
</radialGradient>
<circle class="st0" cx="35.4" cy="35.4" r="35.4"/>
<radialGradient id="SVGID_00000034796750457597020710000007325840469372478352_" cx="1060.6011" cy="917.7294" r="41.0465" fx="1041.9675" fy="954.3027" gradientTransform="matrix(-0.5771 0.8167 -0.8167 -0.5771 1396.9985 -301.0895)" gradientUnits="userSpaceOnUse">
	<stop  offset="8.470784e-02" style="stop-color:#3771C8"/>
	<stop  offset="0.1984" style="stop-color:#4550D8;stop-opacity:0.8758"/>
	<stop  offset="0.3267" style="stop-color:#5133E6;stop-opacity:0.7356"/>
	<stop  offset="0.4637" style="stop-color:#5A1DF1;stop-opacity:0.5859"/>
	<stop  offset="0.6114" style="stop-color:#610DF9;stop-opacity:0.4246"/>
	<stop  offset="0.7774" style="stop-color:#6503FE;stop-opacity:0.2432"/>
	<stop  offset="1" style="stop-color:#6600FF;stop-opacity:0"/>
</radialGradient>
<circle style="fill:url(#SVGID_00000034796750457597020710000007325840469372478352_);" cx="35.4" cy="35.4" r="35.4"/>
<path class="st2" d="M35.4,14.8c-5.6,0-6.3,0-8.5,0.1c-2.2,0.1-3.7,0.4-5,1c-1.4,0.5-2.5,1.2-3.6,2.4c-1.1,1.1-1.8,2.3-2.4,3.6
	c-0.5,1.3-0.9,2.8-1,5c-0.1,2.2-0.1,2.9-0.1,8.5s0,6.3,0.1,8.5c0.1,2.2,0.4,3.7,1,5c0.5,1.4,1.2,2.5,2.4,3.6
	c1.1,1.1,2.3,1.9,3.6,2.4c1.3,0.5,2.8,0.9,5,1c2.2,0.1,2.9,0.1,8.5,0.1c5.6,0,6.3,0,8.5-0.1c2.2-0.1,3.7-0.4,5-1
	c1.4-0.5,2.5-1.2,3.6-2.4c1.1-1.1,1.8-2.3,2.4-3.6c0.5-1.3,0.9-2.8,1-5C56,41.7,56,41,56,35.4s0-6.3-0.1-8.5c-0.1-2.2-0.5-3.7-1-5
	c-0.5-1.4-1.2-2.5-2.4-3.6c-1.1-1.1-2.3-1.8-3.6-2.4c-1.3-0.5-2.8-0.9-5-1C41.7,14.9,41,14.8,35.4,14.8L35.4,14.8z M33.6,18.6
	c0.5,0,1.2,0,1.8,0c5.5,0,6.1,0,8.3,0.1c2,0.1,3.1,0.4,3.8,0.7c1,0.4,1.6,0.8,2.4,1.5c0.7,0.7,1.2,1.4,1.5,2.4
	c0.3,0.7,0.6,1.8,0.7,3.8c0.1,2.2,0.1,2.8,0.1,8.3c0,5.5,0,6.1-0.1,8.3c-0.1,2-0.4,3.1-0.7,3.8c-0.4,1-0.8,1.6-1.5,2.4
	c-0.7,0.7-1.4,1.2-2.4,1.5c-0.7,0.3-1.8,0.6-3.8,0.7c-2.2,0.1-2.8,0.1-8.3,0.1c-5.5,0-6.1,0-8.3-0.1c-2-0.1-3.1-0.4-3.8-0.7
	c-1-0.4-1.6-0.8-2.4-1.5c-0.7-0.7-1.2-1.4-1.5-2.4c-0.3-0.7-0.6-1.8-0.7-3.8c-0.1-2.2-0.1-2.8-0.1-8.3c0-5.5,0-6.1,0.1-8.3
	c0.1-2,0.4-3.1,0.7-3.8c0.4-1,0.8-1.6,1.5-2.4c0.7-0.7,1.4-1.2,2.4-1.5c0.7-0.3,1.8-0.6,3.8-0.7C29,18.6,29.8,18.6,33.6,18.6
	L33.6,18.6z M46.4,22c-1.4,0-2.5,1.1-2.5,2.5c0,1.4,1.1,2.5,2.5,2.5s2.5-1.1,2.5-2.5C48.9,23.1,47.8,22,46.4,22L46.4,22z M35.4,24.9
	c-5.8,0-10.6,4.7-10.6,10.6c0,5.8,4.7,10.6,10.6,10.6C41.3,46,46,41.3,46,35.4S41.3,24.9,35.4,24.9L35.4,24.9z M35.4,28.6
	c3.8,0,6.9,3.1,6.9,6.9c0,3.8-3.1,6.9-6.9,6.9c-3.8,0-6.9-3.1-6.9-6.9C28.6,31.6,31.6,28.6,35.4,28.6z"/>
</svg>
