<?xml version="1.0" encoding="utf-8"?>
<!-- Generator: Adobe Illustrator 27.1.1, SVG Export Plug-In . SVG Version: 6.00 Build 0)  -->
<svg version="1.1" id="Layer_1" xmlns="http://www.w3.org/2000/svg" xmlns:xlink="http://www.w3.org/1999/xlink" x="0px" y="0px"
	 viewBox="0 0 70.9 70.9" style="enable-background:new 0 0 70.9 70.9;" xml:space="preserve">
<style type="text/css">
	.st0{fill:#37AEE2;}
	.st1{fill:#FFFFFF;}
</style>
<circle class="st0" cx="35.4" cy="35.4" r="35.4"/>
<path class="st1" d="M14.4,35l23.4-9.6c2.3-1,10.1-4.2,10.1-4.2s3.6-1.4,3.3,2c-0.1,1.4-0.9,6.3-1.7,11.6l-2.5,15.8
	c0,0-0.2,2.3-1.9,2.7c-1.7,0.4-4.5-1.4-5-1.8c-0.4-0.3-7.5-4.8-10.1-7c-0.7-0.6-1.5-1.8,0.1-3.2c3.6-3.3,7.9-7.4,10.5-10
	c1.2-1.2,2.4-4-2.6-0.6l-14.2,9.5c0,0-1.6,1-4.6,0.1c-3-0.9-6.5-2.1-6.5-2.1S10.3,36.6,14.4,35L14.4,35z"/>
</svg>
