<?xml version="1.0" encoding="utf-8"?>
<!-- Generator: Adobe Illustrator 27.1.1, SVG Export Plug-In . SVG Version: 6.00 Build 0)  -->
<svg version="1.1" id="Layer_1" xmlns="http://www.w3.org/2000/svg" xmlns:xlink="http://www.w3.org/1999/xlink" x="0px" y="0px"
	 viewBox="0 0 70.9 70.9" style="enable-background:new 0 0 70.9 70.9;" xml:space="preserve">
<style type="text/css">
	.st0{fill:#45B035;}
	.st1{fill-rule:evenodd;clip-rule:evenodd;fill:#FFFFFF;}
</style>
<g>
	<path class="st0" d="M0,35.4C0,15.9,15.9,0,35.4,0s35.4,15.9,35.4,35.4S55,70.9,35.4,70.9S0,55,0,35.4z"/>
	<path class="st1" d="M45.4,28.5c-0.2,0-0.5,0-0.7,0c-8.5,0-15.4,5.8-15.4,12.9c0,1.2,0.2,2.3,0.5,3.4c-0.4,0-0.8,0-1.1,0
		c-1.9,0-3.7-0.3-5.3-0.7c-0.1,0-0.3-0.1-0.3-0.1L17,47.1l1.6-5.1l-0.2-0.1c-4-2.6-6.6-6.6-6.6-11.2c0-7.8,7.6-14.1,16.9-14.1
		C37.1,16.5,44.1,21.7,45.4,28.5z M22.8,28.1c-1.3,0-2.4-1-2.4-2.3c0-1.3,1.1-2.3,2.4-2.3c1.3,0,2.4,1,2.4,2.3
		C25.2,27.1,24.1,28.1,22.8,28.1z M34.6,23.5c1.3,0,2.4,1,2.4,2.3c0,1.3-1.1,2.3-2.4,2.3c-1.3,0-2.4-1-2.4-2.3
		C32.2,24.5,33.2,23.5,34.6,23.5z"/>
	<path class="st1" d="M44.8,53.4c-7.9,0-14.3-5.3-14.3-11.9c0-6.6,6.4-11.9,14.3-11.9c7.9,0,14.3,5.3,14.3,11.9
		c0,3.9-2.2,7.3-5.6,9.5L53.3,51l1.4,4.3l-5.2-2.6c0,0-0.2,0-0.2,0.1C47.9,53.1,46.4,53.4,44.8,53.4z M37.8,37.3
		c0-1.1,0.9-1.9,2-1.9c1.1,0,2,0.9,2,1.9c0,1.1-0.9,1.9-2,1.9C38.7,39.3,37.8,38.4,37.8,37.3z M47.7,37.3c0-1.1,0.9-1.9,2-1.9
		c1.1,0,2,0.9,2,1.9c0,1.1-0.9,1.9-2,1.9C48.6,39.3,47.7,38.4,47.7,37.3z"/>
</g>
</svg>
