<?xml version="1.0" encoding="utf-8"?>
<!-- Generator: Adobe Illustrator 27.1.1, SVG Export Plug-In . SVG Version: 6.00 Build 0)  -->
<svg version="1.1" id="Layer_1" xmlns="http://www.w3.org/2000/svg" xmlns:xlink="http://www.w3.org/1999/xlink" x="0px" y="0px"
	 viewBox="0 0 70.9 70.9" style="enable-background:new 0 0 70.9 70.9;" xml:space="preserve">
<style type="text/css">
	.st0{fill:#FFE600;}
	.st1{filter:url(#Adobe_OpacityMaskFilter);}
	.st2{enable-background:new    ;}
	.st3{clip-path:url(#SVGID_00000047743333151774158720000009728622083758898589_);}
	.st4{mask:url(#SVGID_1_);}
	.st5{fill:#392020;}
</style>
<circle class="st0" cx="35.4" cy="35.4" r="35.4"/>
<g>
	<defs>
		<filter id="Adobe_OpacityMaskFilter" filterUnits="userSpaceOnUse" x="6.9" y="6.9" width="57" height="57">
			<feFlood  style="flood-color:white;flood-opacity:1" result="back"/>
			<feBlend  in="SourceGraphic" in2="back" mode="normal"/>
		</filter>
	</defs>
	<mask maskUnits="userSpaceOnUse" x="6.9" y="6.9" width="57" height="57" id="SVGID_1_">
		<g class="st1">
			<g>
				<g>
					<defs>
						
							<rect id="SVGID_00000137112324038317987570000014019029650091991740_" x="-7090.1" y="-7055.5" width="9548.9" height="9548.9"/>
					</defs>
					<clipPath id="SVGID_00000065037069065134466280000004746165666578890140_">
						<use xlink:href="#SVGID_00000137112324038317987570000014019029650091991740_"  style="overflow:visible;"/>
					</clipPath>
					<g class="st2">
						<g>
							<defs>
								<rect id="SVGID_00000028317739417817348330000017979168766871062162_" x="-15.5" y="-14" width="173.5" height="240.4"/>
							</defs>
							
								<clipPath id="SVGID_00000154388664892395793780000014431841162637368752_" style="clip-path:url(#SVGID_00000065037069065134466280000004746165666578890140_);">
								<use xlink:href="#SVGID_00000028317739417817348330000017979168766871062162_"  style="overflow:visible;"/>
							</clipPath>
						</g>
					</g>
				</g>
			</g>
		</g>
	</mask>
	<g class="st4">
		<g>
			<defs>
				<rect id="SVGID_00000016049801501755034030000002609915343380704433_" x="6.9" y="6.9" width="57" height="57"/>
			</defs>
			<clipPath id="SVGID_00000075843693913603349850000005980059430405300406_">
				<use xlink:href="#SVGID_00000016049801501755034030000002609915343380704433_"  style="overflow:visible;"/>
			</clipPath>
		</g>
	</g>
	<path class="st5" d="M36,16c-12.1,0-21.9,7.7-21.9,17.3c0,6.1,4.1,11.5,10.1,14.6l-2.1,7.7c-0.1,0.2,0,0.5,0.2,0.7
		c0.1,0.1,0.3,0.2,0.4,0.2c0.1,0,0.3-0.1,0.4-0.1l8.9-6c1.3,0.2,2.6,0.3,3.9,0.3c12.1,0,21.9-7.7,21.9-17.3C57.9,23.8,48.1,16,36,16
		"/>
	<path class="st0" d="M21.8,30.6h-2.4c-0.3,0-0.6-0.1-0.8-0.2c-0.2-0.1-0.4-0.4-0.4-0.6c0-0.1,0-0.2,0-0.2c0-0.3,0.1-0.6,0.4-0.8
		c0.2-0.2,0.6-0.3,0.9-0.3h7.3c0.3,0,0.6,0.1,0.8,0.2c0.2,0.1,0.4,0.4,0.4,0.6c0,0.1,0,0.2,0,0.2c0,0.4-0.1,0.6-0.4,0.8
		c-0.2,0.2-0.6,0.3-0.9,0.3h-2.4l0,8.2c0,0.4-0.1,0.7-0.3,0.9c-0.2,0.2-0.5,0.4-0.9,0.4c-0.3,0-0.6-0.1-0.8-0.3
		c-0.2-0.2-0.4-0.4-0.4-0.7c0-0.1,0-0.2,0-0.3L21.8,30.6z"/>
	<path class="st0" d="M28.6,29c0.1-0.3,0.3-0.5,0.5-0.6c0.2-0.1,0.5-0.2,0.8-0.2h0.6c0.3,0,0.6,0.1,0.8,0.2c0.2,0.1,0.4,0.4,0.5,0.8
		l3,8.8c0.1,0.3,0.2,0.5,0.2,0.7c0,0.1,0,0.2,0,0.3c0,0.3-0.1,0.6-0.4,0.8c-0.2,0.2-0.5,0.3-0.8,0.3c-0.6,0-1-0.2-1.1-0.7l-0.7-1.9
		h-4.1l-0.7,1.9c-0.2,0.5-0.5,0.7-1.1,0.7c-0.3,0-0.5-0.1-0.7-0.2c-0.2-0.2-0.3-0.4-0.4-0.7c0-0.1,0-0.2,0-0.3c0-0.1,0-0.3,0.1-0.5
		c0-0.2,0.1-0.4,0.2-0.5L28.6,29z M30.2,31L30.2,31l-1.5,4.6h2.9L30.2,31z"/>
	<path class="st0" d="M35.5,29.5c0-0.4,0.1-0.7,0.3-0.9c0.2-0.2,0.5-0.4,0.9-0.4c0.3,0,0.6,0.1,0.8,0.3c0.2,0.2,0.4,0.4,0.4,0.7
		c0,0.1,0,0.2,0,0.3l0,8.2h4.2c0.3,0,0.6,0.1,0.9,0.2c0.2,0.2,0.4,0.4,0.4,0.6c0,0.1,0,0.2,0,0.2c0,0.3-0.1,0.6-0.4,0.8
		c-0.2,0.2-0.6,0.3-0.9,0.3H37c-0.4,0-0.7-0.1-0.9-0.2c-0.2-0.2-0.4-0.4-0.5-0.8c0-0.2,0-0.3-0.1-0.5L35.5,29.5z"/>
	<path class="st0" d="M43.8,29.5c0-0.4,0.1-0.7,0.3-0.9c0.2-0.2,0.5-0.4,0.9-0.4c0.3,0,0.6,0.1,0.8,0.3c0.2,0.2,0.4,0.4,0.4,0.7
		c0,0.1,0,0.2,0,0.3l0,3.8l4-4.5c0.2-0.2,0.3-0.3,0.5-0.4c0.1-0.1,0.3-0.1,0.5-0.1c0.3,0,0.5,0.1,0.8,0.2c0.2,0.2,0.4,0.4,0.4,0.6
		c0,0,0,0,0,0.1c0,0,0,0.1,0,0.1c0,0.2,0,0.3-0.1,0.5c-0.1,0.1-0.2,0.3-0.3,0.4l-2.6,2.8l3.1,4.8l0.1,0.1c0.2,0.3,0.3,0.6,0.4,0.7
		c0,0,0,0,0,0.1c0,0,0,0.1,0,0.1c0,0.4-0.1,0.8-0.4,1c-0.3,0.2-0.6,0.3-0.9,0.3c-0.3,0-0.5,0-0.6-0.1c-0.2-0.1-0.3-0.3-0.5-0.5
		l-2.9-4.7l-1.4,1.4l0,2.6c0,0.4-0.1,0.7-0.3,0.9c-0.2,0.2-0.5,0.4-0.9,0.4c-0.3,0-0.6-0.1-0.8-0.3c-0.2-0.2-0.4-0.4-0.4-0.7
		c0-0.1,0-0.2,0-0.3L43.8,29.5z"/>
</g>
</svg>
